HIERARCHY
ROOT Hips
{
    OFFSET 0.0 0.0 0.0
    CHANNELS 6 Xposition Yposition Zposition Zrotation Xrotation Yrotation
    JOINT LeftHipJoint
    {
        OFFSET 0.1 0.0 0.0
        CHANNELS 3 Zrotation Xrotation Yrotation
        JOINT LeftUpLeg
        {
            OFFSET 132.20554564692995 0.0 0.0
            CHANNELS 3 Zrotation Xrotation Yrotation
            JOINT LeftLeg
            {
                OFFSET 0.0 0.0 -431.51052311827306
                CHANNELS 3 Zrotation Xrotation Yrotation
                JOINT LeftFoot
                {
                    OFFSET 0.0 0.0 -398.5708142041799
                    CHANNELS 3 Zrotation Xrotation Yrotation
                    End Site
                    {
                        OFFSET 0.0 -0.1 0.0
                    }
                }
            }
        }
    }
    JOINT LowerBack
    {
        OFFSET 0.0 0.0 0.1
        CHANNELS 3 Zrotation Xrotation Yrotation
        JOINT Spine
        {
            OFFSET 0.0 0.0 233.429270417356
            CHANNELS 3 Zrotation Xrotation Yrotation
            JOINT Spine1
            {
                OFFSET 0.0 0.0 252.7954902791071
                CHANNELS 3 Zrotation Xrotation Yrotation
                JOINT LeftShoulder
                {
                    OFFSET 0.1 0.0 0.0
                    CHANNELS 3 Zrotation Xrotation Yrotation
                    JOINT LeftArm
                    {
                        OFFSET 151.654810400653 0.0 0.0
                        CHANNELS 3 Zrotation Xrotation Yrotation
                        JOINT LeftForeArm
                        {
                            OFFSET 276.55044389465326 0.0 0.0
                            CHANNELS 3 Zrotation Xrotation Yrotation
                            JOINT LeftHand
                            {
                                OFFSET 259.3342907273061 0.0 0.0
                                CHANNELS 3 Zrotation Xrotation Yrotation
                                End Site
                                {
                                    OFFSET 0.1 0.0 0.0
                                }
                            }
                        }
                    }
                }
                JOINT Neck
                {
                    OFFSET 0.0 0.0 0.1
                    CHANNELS 3 Zrotation Xrotation Yrotation
                    JOINT Neck1
                    {
                        OFFSET 0.0 0.0 107.81233999944361
                        CHANNELS 3 Zrotation Xrotation Yrotation
                        End Site
                        {
                            OFFSET 0.0 0.0 108.02594980986441
                        }
                    }
                }
                JOINT RightShoulder
                {
                    OFFSET -0.1 0.0 0.0
                    CHANNELS 3 Zrotation Xrotation Yrotation
                    JOINT RightArm
                    {
                        OFFSET -151.654810400653 0.0 0.0
                        CHANNELS 3 Zrotation Xrotation Yrotation
                        JOINT RightForeArm
                        {
                            OFFSET -276.55044389465326 0.0 0.0
                            CHANNELS 3 Zrotation Xrotation Yrotation
                            JOINT RightHand
                            {
                                OFFSET -259.3342907273061 0.0 0.0
                                CHANNELS 3 Zrotation Xrotation Yrotation
                                End Site
                                {
                                    OFFSET -0.1 0.0 0.0
                                }
                            }
                        }
                    }
                }
            }
        }
    }
    JOINT RightHipJoint
    {
        OFFSET -0.1 0.0 0.0
        CHANNELS 3 Zrotation Xrotation Yrotation
        JOINT RightUpLeg
        {
            OFFSET -132.20554564692995 0.0 0.0
            CHANNELS 3 Zrotation Xrotation Yrotation
            JOINT RightLeg
            {
                OFFSET 0.0 0.0 -431.51052311827306
                CHANNELS 3 Zrotation Xrotation Yrotation
                JOINT RightFoot
                {
                    OFFSET 0.0 0.0 -398.5708142041799
                    CHANNELS 3 Zrotation Xrotation Yrotation
                    End Site
                    {
                        OFFSET 0.0 -0.1 0.0
                    }
                }
            }
        }
    }
}
MOTION
Frames: 4
Frame Time: 0.03333333333333333
0.0 0.0 846.5033018673631 32.42014240220886 -23.86698275160726 8.789774623762213 -3.4483642953516864e-34 4.969616689786745e-17 7.951386703658792e-16 0.2157486065552454 13.419931706677986 -0.4891923768866682 0.18636832255672545 23.510894493900985 -5.300656148805662 0.0 0.0 0.0 -3.4483642953516864e-34 4.969616689786745e-17 7.951386703658792e-16 0.2160459180361246 13.585141621497575 -2.6277003802176315 -4.721932226199588 -6.122256314314447e-16 3.726650629200887e-16 0.0 0.0 -3.975693351829396e-16 -93.57488455686077 15.223551520881816 58.58066969732311 -107.10923451309253 -5.117025925632247e-15 3.7788567058735394e-15 0.0 0.0 0.0 0.0 0.0 -3.975693351829396e-16 -9.564939587149452 0.9945344650128876 -16.27734088489514 0.0 0.0 -3.975693351829396e-16 6.123690788812793 -40.498682055440874 -82.36107686508605 142.36460277471227 -9.578209782705573e-15 3.4563217727409416e-15 0.0 0.0 0.0 -3.4483642953516864e-34 4.969616689786745e-17 7.951386703658792e-16 0.26882618914232775 16.87249412255225 -7.070268145682267 -1.8092871894503813 16.370470594218574 8.778964221660972 -6.896728590703373e-34 -3.975693351829396e-16 -1.987846675914698e-16
0.0 0.0 846.5033018673631 32.388177971208385 -23.860689197726682 8.863949948215298 0.0 0.0 0.0 0.21684269613225887 13.179800872022593 -0.6406554251908839 0.13069440869562396 23.672590632220295 -5.360360519488783 0.0 0.0 3.975693351829396e-16 0.0 0.0 0.0 0.22214106553088883 13.63782754872169 -2.726992241450368 -4.69712622316201 -1.2910150022627686e-15 -5.294856812770864e-17 0.0 0.0 -3.975693351829396e-16 -93.47727905279065 15.1721854537897 58.643674900572954 -106.94151092689333 0.0 -0.0 0.0 0.0 7.951386703658792e-16 0.0 0.0 -3.975693351829396e-16 -9.425602257954544 0.7329941976057083 -16.385653136703205 0.0 0.0 -3.975693351829396e-16 6.028668289459517 -40.532611037473465 -82.17614785108611 142.23409445634098 -4.356788792819391e-15 -2.165899169769045e-14 0.0 7.951386703658792e-16 0.0 0.0 0.0 0.0 0.27873836419376363 17.06574873663094 -7.332388708818763 -1.8314713712639055 15.967726086736155 8.786559637417042 0.0 0.0 3.975693351829396e-16
0.0 0.0 846.5033018673631 32.55070097055538 -23.86099821948527 9.049158718641575 0.0 0.0 0.0 0.23473392412487878 13.023383685773378 -0.8983383569808203 0.05786068845505797 23.836185133861022 -5.375525211325881 0.0 0.0 0.0 0.0 0.0 0.0 0.24459782440354003 13.686637008293244 -2.894694421052448 -4.742295410175256 -1.9696962166729298e-15 -4.794711641457354e-16 0.0 -1.689669674527493e-15 0.0 -93.58848631321173 15.170493229174674 58.73687563797022 -106.80361441407035 1.3144388272094599e-15 -8.899419937488072e-15 0.0 0.0 0.0 0.0 -1.689669674527493e-15 0.0 -9.378927526005562 0.5689864342157026 -16.49734364345185 0.0 -1.689669674527493e-15 0.0 5.688829656397314 -40.52895385098912 -82.25628385655382 142.30493708516988 -5.499529457187361e-16 6.533777322885906e-15 0.0 0.0 0.0 0.0 0.0 0.0 0.3086154132398275 17.200265759805713 -7.7391101042121315 -1.8691800939236807 15.548482547483825 8.879866576506771 0.0 0.0 -5.963540027744094e-16
0.0 0.0 846.5033018673631 32.64466173644916 -23.879056309272872 9.21490670837404 2.2069531490250793e-32 -3.1805546814635168e-15 7.951386703658792e-16 0.2534645600948124 12.880499342296135 -1.2137571485343581 -0.039441802663731235 23.88731547985915 -5.3146203369577885 -3.1805546814635164e-15 -1.987846675914698e-16 3.9756933518293955e-16 2.2069531490250793e-32 -3.1805546814635168e-15 7.951386703658792e-16 0.2680332260168921 13.71800401641366 -3.021546812295591 -4.809625204726469 4.3058288072505903e-16 -7.777565584522785e-16 0.0 0.0 0.0 -93.56970899054673 15.166014039099913 58.92749039561759 -106.62807906067331 8.901422998692647e-15 1.3008048480004712e-15 0.0 0.0 0.0 0.0 0.0 0.0 -9.265537088792067 0.6318918578368076 -16.506807671285433 0.0 0.0 0.0 5.3657066193293845 -40.48333746505458 -82.39572276491074 142.28461008207063 -5.511119413797731e-16 6.533679665826253e-15 0.0 0.0 0.0 2.2069531490250793e-32 -3.1805546814635168e-15 7.951386703658792e-16 0.3403400809195439 17.328534425329373 -8.093910619865204 -1.9024875651555957 15.251075142917292 8.849205969254594 0.0 0.0 3.975693351829396e-16
